<svg width="10" height="10" viewBox="0 0 10 10" fill="none" xmlns="http://www.w3.org/2000/svg">
<path d="M2.48144 4.74417C2.38909 5.00442 2.5252 5.29025 2.78544 5.38259C3.04569 5.47494 3.33152 5.33883 3.42386 5.07858L2.48144 4.74417ZM3.79992 2.52361L3.32871 2.35641V2.35641L3.79992 2.52361ZM4.37135 2.02885L4.2733 1.53856L4.2733 1.53856L4.37135 2.02885ZM9.35937 1.03125L9.85144 1.11998C9.88081 0.957114 9.82768 0.790264 9.70955 0.674356C9.59142 0.558449 9.4236 0.508503 9.26131 0.54096L9.35937 1.03125ZM8.44911 6.07906L7.95705 5.99032V5.99032L8.44911 6.07906ZM7.92397 6.674L7.77484 6.19676L7.77484 6.19676L7.92397 6.674ZM5.33011 6.96073C5.06654 7.0431 4.91964 7.32354 5.00201 7.58711C5.08437 7.85068 5.36481 7.99758 5.62838 7.91521L5.33011 6.96073ZM9.62269 1.47504C9.81795 1.27978 9.81795 0.963195 9.62269 0.767933C9.42743 0.572671 9.11085 0.572671 8.91558 0.767933L9.62269 1.47504ZM6.74993 2.93359C6.55467 3.12885 6.55467 3.44543 6.74993 3.64069C6.94519 3.83595 7.26178 3.83595 7.45704 3.64069L6.74993 2.93359ZM1.50888 6.71609L1.15533 7.06964H1.15533L1.50888 6.71609ZM1.50888 5.9942L1.86244 6.34776L1.86244 6.34776L1.50888 5.9942ZM4.39642 8.88174L4.74997 9.2353L4.39642 8.88174ZM3.67454 8.88174L4.02809 8.52819L3.67454 8.88174ZM5.29877 7.2575L4.94522 7.61106H4.94522L5.29877 7.2575ZM5.29877 7.97939L4.94522 7.62583H4.94522L5.29877 7.97939ZM3.13312 5.09185L3.48668 4.7383L3.13312 5.09185ZM2.41124 5.09185L2.05768 4.7383H2.05768L2.41124 5.09185ZM3.42386 5.07858L4.27114 2.69082L3.32871 2.35641L2.48144 4.74417L3.42386 5.07858ZM4.46941 2.51914L9.45743 1.52154L9.26131 0.54096L4.2733 1.53856L4.46941 2.51914ZM8.86731 0.942517L7.95705 5.99032L8.94118 6.16779L9.85144 1.11998L8.86731 0.942517ZM7.77484 6.19676L5.33011 6.96073L5.62838 7.91521L8.07311 7.15124L7.77484 6.19676ZM7.95705 5.99032C7.93949 6.0877 7.86928 6.16724 7.77484 6.19676L8.07311 7.15124C8.52302 7.01064 8.85753 6.63167 8.94118 6.16779L7.95705 5.99032ZM4.27114 2.69082C4.30241 2.60268 4.37771 2.53748 4.46941 2.51914L4.2733 1.53856C3.83644 1.62594 3.47769 1.93655 3.32871 2.35641L4.27114 2.69082ZM8.91558 0.767933L6.74993 2.93359L7.45704 3.64069L9.62269 1.47504L8.91558 0.767933ZM2.77957 5.4454L4.94522 7.61106L5.65233 6.90395L3.48668 4.7383L2.77957 5.4454ZM4.94522 7.62583L4.04287 8.52819L4.74997 9.2353L5.65233 8.33294L4.94522 7.62583ZM4.02809 8.52819L1.86244 6.36254L1.15533 7.06964L3.32098 9.2353L4.02809 8.52819ZM1.86244 6.34776L2.76479 5.4454L2.05768 4.7383L1.15533 5.64065L1.86244 6.34776ZM1.86244 6.36254C1.86076 6.36086 1.86033 6.35989 1.8601 6.35933C1.85974 6.35844 1.85938 6.357 1.85938 6.35515C1.85938 6.3533 1.85974 6.35186 1.8601 6.35096C1.86033 6.3504 1.86076 6.34943 1.86244 6.34776L1.15533 5.64065C0.760724 6.03526 0.760724 6.67504 1.15533 7.06964L1.86244 6.36254ZM4.04287 8.52819C4.04119 8.52986 4.04022 8.53029 4.03966 8.53052C4.03877 8.53088 4.03733 8.53125 4.03548 8.53125C4.03363 8.53125 4.03219 8.53088 4.03129 8.53052C4.03073 8.53029 4.02976 8.52986 4.02809 8.52819L3.32098 9.2353C3.71559 9.6299 4.35537 9.6299 4.74997 9.2353L4.04287 8.52819ZM4.94522 7.61106C4.94689 7.61273 4.94733 7.6137 4.94755 7.61426C4.94792 7.61515 4.94828 7.61659 4.94828 7.61844C4.94828 7.6203 4.94792 7.62174 4.94755 7.62263C4.94733 7.62319 4.94689 7.62416 4.94522 7.62583L5.65233 8.33294C6.04693 7.93833 6.04693 7.29855 5.65233 6.90395L4.94522 7.61106ZM3.48668 4.7383C3.09207 4.34369 2.45229 4.34369 2.05768 4.7383L2.76479 5.4454C2.76646 5.44373 2.76744 5.4433 2.76799 5.44307C2.76889 5.44271 2.77033 5.44234 2.77218 5.44234C2.77403 5.44234 2.77547 5.44271 2.77637 5.44307C2.77692 5.4433 2.7779 5.44373 2.77957 5.4454L3.48668 4.7383ZM6.56946 4.55783C6.36604 4.76125 6.03622 4.76125 5.8328 4.55783L5.12569 5.26493C5.71964 5.85888 6.68262 5.85888 7.27657 5.26493L6.56946 4.55783ZM5.8328 4.55783C5.62938 4.3544 5.62938 4.02459 5.8328 3.82116L5.12569 3.11406C4.53174 3.708 4.53174 4.67098 5.12569 5.26493L5.8328 4.55783ZM5.8328 3.82116C6.03622 3.61774 6.36604 3.61774 6.56946 3.82116L7.27657 3.11406C6.68262 2.52011 5.71964 2.52011 5.12569 3.11406L5.8328 3.82116ZM6.56946 3.82116C6.77288 4.02459 6.77288 4.3544 6.56946 4.55783L7.27657 5.26493C7.87052 4.67098 7.87051 3.708 7.27657 3.11406L6.56946 3.82116Z" fill="#385BA2"/>
</svg>
