<svg width="8" height="5" viewBox="0 0 8 5" fill="none" xmlns="http://www.w3.org/2000/svg">
<path d="M0.415 4V0.5H2.005C2.385 0.5 2.72 0.573333 3.01 0.72C3.3 0.863333 3.52667 1.065 3.69 1.325C3.85333 1.585 3.935 1.89333 3.935 2.25C3.935 2.60333 3.85333 2.91167 3.69 3.175C3.52667 3.435 3.3 3.63833 3.01 3.785C2.72 3.92833 2.385 4 2.005 4H0.415ZM1.225 3.335H1.965C2.19833 3.335 2.4 3.29167 2.57 3.205C2.74333 3.115 2.87667 2.98833 2.97 2.825C3.06667 2.66167 3.115 2.47 3.115 2.25C3.115 2.02667 3.06667 1.835 2.97 1.675C2.87667 1.51167 2.74333 1.38667 2.57 1.3C2.4 1.21 2.19833 1.165 1.965 1.165H1.225V3.335ZM5.69586 4.06C5.41586 4.06 5.14753 4.02333 4.89086 3.95C4.63419 3.87333 4.42753 3.775 4.27086 3.655L4.54586 3.045C4.69586 3.15167 4.87253 3.24 5.07586 3.31C5.28253 3.37667 5.49086 3.41 5.70086 3.41C5.86086 3.41 5.98919 3.395 6.08586 3.365C6.18586 3.33167 6.25919 3.28667 6.30586 3.23C6.35253 3.17333 6.37586 3.10833 6.37586 3.035C6.37586 2.94167 6.33919 2.86833 6.26586 2.815C6.19253 2.75833 6.09586 2.71333 5.97586 2.68C5.85586 2.64333 5.72253 2.61 5.57586 2.58C5.43253 2.54667 5.28753 2.50667 5.14086 2.46C4.99753 2.41333 4.86586 2.35333 4.74586 2.28C4.62586 2.20667 4.52753 2.11 4.45086 1.99C4.37753 1.87 4.34086 1.71667 4.34086 1.53C4.34086 1.33 4.39419 1.14833 4.50086 0.985C4.61086 0.818333 4.77419 0.686666 4.99086 0.59C5.21086 0.49 5.48586 0.44 5.81586 0.44C6.03586 0.44 6.25253 0.466667 6.46586 0.52C6.67919 0.57 6.86753 0.646666 7.03086 0.75L6.78086 1.365C6.61753 1.27167 6.45419 1.20333 6.29086 1.16C6.12753 1.11333 5.96753 1.09 5.81086 1.09C5.65419 1.09 5.52586 1.10833 5.42586 1.145C5.32586 1.18167 5.25419 1.23 5.21086 1.29C5.16753 1.34667 5.14586 1.41333 5.14586 1.49C5.14586 1.58 5.18253 1.65333 5.25586 1.71C5.32919 1.76333 5.42586 1.80667 5.54586 1.84C5.66586 1.87333 5.79753 1.90667 5.94086 1.94C6.08753 1.97333 6.23253 2.01167 6.37586 2.055C6.52253 2.09833 6.65586 2.15667 6.77586 2.23C6.89586 2.30333 6.99253 2.4 7.06586 2.52C7.14253 2.64 7.18086 2.79167 7.18086 2.975C7.18086 3.17167 7.12586 3.35167 7.01586 3.515C6.90586 3.67833 6.74086 3.81 6.52086 3.91C6.30419 4.01 6.02919 4.06 5.69586 4.06Z" fill="#385BA2"/>
</svg>
