<svg width="84" height="83" viewBox="0 0 84 83" fill="none" xmlns="http://www.w3.org/2000/svg">
<ellipse cx="42" cy="41.3155" rx="42" ry="40.9756" fill="#865CE2" fill-opacity="0.25"/>
<circle cx="42.25" cy="41.5898" r="35.25" fill="#865CE2" fill-opacity="0.25"/>
<path d="M36.9375 48.875V43.8125C36.9375 43.1912 37.4412 42.6875 38.0625 42.6875H45.9375C46.5588 42.6875 47.0625 43.1912 47.0625 43.8125V49.4375M44.8125 36.5L38.0625 36.5C37.4412 36.5 36.9375 35.9963 36.9375 35.375L36.9375 32M50.4351 35.9351L47.0649 32.5649C46.7032 32.2032 46.2127 32 45.7012 32H34.9286C33.8634 32 33 32.8634 33 33.9286V48.0714C33 49.1366 33.8634 50 34.9286 50H49.0714C50.1366 50 51 49.1366 51 48.0714V37.2988C51 36.7873 50.7968 36.2968 50.4351 35.9351Z" stroke="#865CE2" stroke-width="2" stroke-linecap="round"/>
</svg>
