<svg width="15" height="13" viewBox="0 0 15 13" fill="none" xmlns="http://www.w3.org/2000/svg">
<path d="M11.9531 0.875H3.04688C2.61213 0.876237 2.19555 1.04948 1.88814 1.35689C1.58073 1.6643 1.40749 2.08088 1.40625 2.51562V8.14062C1.40749 8.57537 1.58073 8.99195 1.88814 9.29936C2.19555 9.60676 2.61213 9.78001 3.04688 9.78125H4.21875V12.125L6.96445 9.83574C7.00662 9.80053 7.05981 9.78124 7.11475 9.78125H11.9531C12.3879 9.78001 12.8044 9.60676 13.1119 9.29936C13.4193 8.99195 13.5925 8.57537 13.5938 8.14062V2.51562C13.5925 2.08088 13.4193 1.6643 13.1119 1.35689C12.8044 1.04948 12.3879 0.876237 11.9531 0.875Z" stroke="white" stroke-linejoin="round"/>
<path d="M4.6875 6.26562C5.20527 6.26562 5.625 5.84589 5.625 5.32812C5.625 4.81036 5.20527 4.39062 4.6875 4.39062C4.16973 4.39062 3.75 4.81036 3.75 5.32812C3.75 5.84589 4.16973 6.26562 4.6875 6.26562Z" fill="white" stroke="white" stroke-width="0.0585938"/>
<path d="M7.5 6.26562C8.01777 6.26562 8.4375 5.84589 8.4375 5.32812C8.4375 4.81036 8.01777 4.39062 7.5 4.39062C6.98223 4.39062 6.5625 4.81036 6.5625 5.32812C6.5625 5.84589 6.98223 6.26562 7.5 6.26562Z" fill="white" stroke="white" stroke-width="0.0585938"/>
<path d="M10.3125 6.26562C10.8303 6.26562 11.25 5.84589 11.25 5.32812C11.25 4.81036 10.8303 4.39062 10.3125 4.39062C9.79473 4.39062 9.375 4.81036 9.375 5.32812C9.375 5.84589 9.79473 6.26562 10.3125 6.26562Z" fill="white" stroke="white" stroke-width="0.0585938"/>
</svg>
