<svg width="18" height="18" viewBox="0 0 18 18" fill="none" xmlns="http://www.w3.org/2000/svg">
<path d="M3.4471 8.70925C3.27303 9.1998 3.52959 9.73859 4.02015 9.91266C4.5107 10.0867 5.04949 9.83016 5.22356 9.3396L3.4471 8.70925ZM5.93242 4.52352L5.04419 4.20834L5.04419 4.20834L5.93242 4.52352ZM7.00956 3.59092L6.82472 2.66673L6.82472 2.66673L7.00956 3.59092ZM16.4119 1.71045L17.3394 1.87771C17.3948 1.5707 17.2946 1.25619 17.072 1.03771C16.8493 0.819228 16.533 0.72508 16.2271 0.78626L16.4119 1.71045ZM14.6961 11.2255L13.7685 11.0582L13.7685 11.0582L14.6961 11.2255ZM13.7062 12.3469L13.4251 11.4473L13.4251 11.4473L13.7062 12.3469ZM8.81679 12.8874C8.31997 13.0427 8.04307 13.5713 8.19833 14.0681C8.35359 14.565 8.88221 14.8419 9.37904 14.6866L8.81679 12.8874ZM16.9082 2.54698C17.2763 2.17892 17.2763 1.58217 16.9082 1.2141C16.5402 0.846035 15.9434 0.846035 15.5754 1.2141L16.9082 2.54698ZM11.4931 5.29632C11.1251 5.66439 11.1251 6.26114 11.4931 6.6292C11.8612 6.99727 12.458 6.99727 12.826 6.6292L11.4931 5.29632ZM1.61385 12.4263L0.947407 13.0927L0.947407 13.0927L1.61385 12.4263ZM1.61385 11.0655L2.28029 11.732L2.28029 11.732L1.61385 11.0655ZM7.05681 16.5085L7.72325 17.1749L7.72325 17.1749L7.05681 16.5085ZM5.69607 16.5085L6.36251 15.8421L6.36251 15.8421L5.69607 16.5085ZM8.75773 13.4468L8.09129 14.1133L8.09129 14.1133L8.75773 13.4468ZM8.75773 14.8076L8.09129 14.1411L8.09129 14.1411L8.75773 14.8076ZM4.67551 9.36461L5.34196 8.69817L5.34196 8.69817L4.67551 9.36461ZM3.31477 9.36461L2.64833 8.69817L2.64833 8.69817L3.31477 9.36461ZM5.22356 9.3396L6.82065 4.8387L5.04419 4.20834L3.4471 8.70925L5.22356 9.3396ZM7.1944 4.51511L16.5967 2.63464L16.2271 0.78626L6.82472 2.66673L7.1944 4.51511ZM15.4844 1.54319L13.7685 11.0582L15.6236 11.3927L17.3394 1.87771L15.4844 1.54319ZM13.4251 11.4473L8.81679 12.8874L9.37904 14.6866L13.9873 13.2465L13.4251 11.4473ZM13.7685 11.0582C13.7354 11.2418 13.6031 11.3917 13.4251 11.4473L13.9873 13.2465C14.8354 12.9815 15.4659 12.2671 15.6236 11.3927L13.7685 11.0582ZM6.82065 4.8387C6.8796 4.67258 7.02155 4.54968 7.1944 4.51511L6.82472 2.66673C6.00126 2.83142 5.32502 3.41692 5.04419 4.20834L6.82065 4.8387ZM15.5754 1.2141L11.4931 5.29632L12.826 6.6292L16.9082 2.54698L15.5754 1.2141ZM4.00907 10.0311L8.09129 14.1133L9.42417 12.7804L5.34196 8.69817L4.00907 10.0311ZM8.09129 14.1411L6.39037 15.8421L7.72325 17.1749L9.42417 15.474L8.09129 14.1411ZM6.36251 15.8421L2.28029 11.7598L0.947407 13.0927L5.02963 17.1749L6.36251 15.8421ZM2.28029 11.732L3.98122 10.0311L2.64833 8.69817L0.947407 10.3991L2.28029 11.732ZM2.28029 11.7598C2.27714 11.7567 2.27632 11.7548 2.2759 11.7538C2.27521 11.7521 2.27452 11.7494 2.27452 11.7459C2.27452 11.7424 2.27521 11.7397 2.2759 11.738C2.27632 11.737 2.27714 11.7351 2.28029 11.732L0.947407 10.3991C0.203584 11.1429 0.203584 12.3489 0.947407 13.0927L2.28029 11.7598ZM6.39037 15.8421C6.38721 15.8452 6.38538 15.846 6.38433 15.8464C6.38264 15.8471 6.37993 15.8478 6.37644 15.8478C6.37295 15.8478 6.37023 15.8471 6.36855 15.8464C6.3675 15.846 6.36566 15.8452 6.36251 15.8421L5.02963 17.1749C5.77345 17.9188 6.97943 17.9188 7.72325 17.1749L6.39037 15.8421ZM8.09129 14.1133C8.09444 14.1164 8.09526 14.1183 8.09569 14.1193C8.09637 14.121 8.09706 14.1237 8.09706 14.1272C8.09706 14.1307 8.09637 14.1334 8.09569 14.1351C8.09526 14.1361 8.09444 14.138 8.09129 14.1411L9.42417 15.474C10.168 14.7302 10.168 13.5242 9.42417 12.7804L8.09129 14.1133ZM5.34196 8.69817C4.59813 7.95434 3.39216 7.95434 2.64833 8.69817L3.98122 10.0311C3.98437 10.0279 3.9862 10.0271 3.98725 10.0267C3.98894 10.026 3.99166 10.0253 3.99514 10.0253C3.99863 10.0253 4.00135 10.026 4.00303 10.0267C4.00409 10.0271 4.00592 10.0279 4.00907 10.0311L5.34196 8.69817ZM11.153 8.35798C10.7695 8.74143 10.1478 8.74143 9.76436 8.35798L8.43147 9.69087C9.55106 10.8104 11.3663 10.8104 12.4858 9.69087L11.153 8.35798ZM9.76436 8.35798C9.38091 7.97453 9.38091 7.35284 9.76436 6.96939L8.43148 5.6365C7.31189 6.75609 7.31189 8.57129 8.43147 9.69087L9.76436 8.35798ZM9.76436 6.96939C10.1478 6.58594 10.7695 6.58594 11.153 6.96939L12.4858 5.6365C11.3663 4.51692 9.55106 4.51692 8.43148 5.6365L9.76436 6.96939ZM11.153 6.96939C11.5364 7.35284 11.5364 7.97453 11.153 8.35798L12.4858 9.69087C13.6054 8.57129 13.6054 6.75609 12.4858 5.6365L11.153 6.96939Z" fill="#385BA2"/>
</svg>
