<svg width="18" height="11" viewBox="0 0 18 11" fill="none" xmlns="http://www.w3.org/2000/svg">
<line x1="0.65625" y1="10.0315" x2="17.6211" y2="10.0315" stroke="#385BA2" stroke-width="1.88498"/>
<path d="M2.78227 8V1.40256H5.77939C6.49568 1.40256 7.12715 1.54079 7.6738 1.81726C8.22044 2.08744 8.64771 2.46757 8.95559 2.95767C9.26347 3.44777 9.41741 4.02897 9.41741 4.70128C9.41741 5.36731 9.26347 5.94851 8.95559 6.44489C8.64771 6.93498 8.22044 7.31826 7.6738 7.59473C7.12715 7.86491 6.49568 8 5.77939 8H2.78227ZM4.3091 6.74649H5.70399C6.14382 6.74649 6.52396 6.6648 6.84441 6.50144C7.17114 6.33179 7.42247 6.09303 7.5984 5.78514C7.78061 5.47726 7.87172 5.11598 7.87172 4.70128C7.87172 4.2803 7.78061 3.91901 7.5984 3.61741C7.42247 3.30953 7.17114 3.07391 6.84441 2.91055C6.52396 2.7409 6.14382 2.65607 5.70399 2.65607H4.3091V6.74649ZM12.7366 8.1131C12.2088 8.1131 11.703 8.04398 11.2192 7.90575C10.7354 7.76124 10.3458 7.57588 10.0505 7.34968L10.5689 6.19984C10.8516 6.40091 11.1846 6.56741 11.5679 6.69936C11.9575 6.82503 12.3502 6.88786 12.746 6.88786C13.0476 6.88786 13.2895 6.85959 13.4717 6.80304C13.6602 6.7402 13.7985 6.65538 13.8864 6.54856C13.9744 6.44175 14.0184 6.31922 14.0184 6.18099C14.0184 6.00506 13.9493 5.86683 13.811 5.7663C13.6728 5.65948 13.4906 5.57466 13.2644 5.51182C13.0382 5.44271 12.7869 5.37987 12.5104 5.32332C12.2402 5.26049 11.9669 5.18509 11.6904 5.09713C11.4203 5.00916 11.1721 4.89606 10.9459 4.75783C10.7197 4.6196 10.5343 4.43738 10.3898 4.21118C10.2516 3.98499 10.1824 3.69596 10.1824 3.34409C10.1824 2.9671 10.283 2.62466 10.484 2.31678C10.6914 2.00261 10.9993 1.75442 11.4077 1.57221C11.8224 1.38371 12.3408 1.28946 12.9628 1.28946C13.3775 1.28946 13.7859 1.33973 14.188 1.44026C14.5902 1.53451 14.9452 1.67902 15.253 1.87381L14.7818 3.03307C14.4739 2.85714 14.166 2.72833 13.8582 2.64665C13.5503 2.55868 13.2487 2.5147 12.9534 2.5147C12.6581 2.5147 12.4162 2.54926 12.2277 2.61837C12.0392 2.68749 11.9041 2.7786 11.8224 2.8917C11.7407 2.99851 11.6999 3.12418 11.6999 3.26869C11.6999 3.43834 11.769 3.57657 11.9072 3.68339C12.0454 3.78392 12.2277 3.8656 12.4539 3.92844C12.68 3.99127 12.9282 4.0541 13.1984 4.11693C13.4749 4.17977 13.7482 4.25203 14.0184 4.33371C14.2949 4.41539 14.5462 4.52535 14.7724 4.66358C14.9986 4.80181 15.1808 4.98403 15.319 5.21023C15.4635 5.43642 15.5358 5.72231 15.5358 6.06789C15.5358 6.43861 15.4321 6.7779 15.2248 7.08578C15.0174 7.39366 14.7064 7.64185 14.2917 7.83035C13.8833 8.01885 13.3649 8.1131 12.7366 8.1131Z" fill="#385BA2"/>
</svg>
