<svg width="15" height="14" viewBox="0 0 15 14" fill="none" xmlns="http://www.w3.org/2000/svg">
<path d="M4.5 1.28947V2.94737H0.5625C0.25184 2.94737 0 3.19479 0 3.5V11.9737C0 13.0928 0.923413 14 2.0625 14H12.9375C14.0766 14 15 13.0928 15 11.9737V3.5C15 3.19479 14.7482 2.94737 14.4375 2.94737H10.5V1.28947C10.5 0.577317 9.91237 0 9.1875 0H5.8125C5.08763 0 4.5 0.577317 4.5 1.28947ZM5.8125 1.10526H9.1875C9.29105 1.10526 9.375 1.18774 9.375 1.28947V2.94737H5.625V1.28947C5.625 1.18774 5.70895 1.10526 5.8125 1.10526ZM4.5 8.10526V5.52632H7.125V8.10526H4.5ZM4.5 11.4211V8.8421H7.125V11.4211H4.5ZM10.5 8.10526H7.875V5.52632H10.5V8.10526ZM7.875 11.4211V8.8421H10.5V11.4211H7.875Z" fill="white"/>
</svg>
